<svg xmlns="http://www.w3.org/2000/svg" viewBox="0 0 1024 1024" width="100%" height="100%" fill-rule="evenodd">
  <!-- Stylized D in Pearl White -->
  <path d="M 560 195 L 542 188 L 521 185 L 406 185 L 334 608 L 444 608 L 474 603 L 498 593 L 516 580 L 543 547 L 552 525 L 557 502 L 490 502 L 481 526 L 464 538 L 451 541 L 414 539 L 465 249 L 467 247 L 513 248 L 527 258 L 530 266 L 501 441 L 512 413 L 529 390 L 553 371 L 579 361 L 593 282 L 594 248 L 584 218 Z" fill="#F7F7F7" />
  <!-- Stylized 2 in Performance Red -->
  <path d="M 665 367 L 630 357 L 602 357 L 574 363 L 553 372 L 540 381 L 515 410 L 499 450 L 491 501 L 557 501 L 569 441 L 580 429 L 597 423 L 615 424 L 630 434 L 634 454 L 629 484 L 618 515 L 602 533 L 524 578 L 491 607 L 478 625 L 462 664 L 438 800 L 646 801 L 659 731 L 519 731 L 518 726 L 533 661 L 541 646 L 563 627 L 613 603 L 641 584 L 662 563 L 684 527 L 698 480 L 702 429 L 698 408 L 691 392 L 678 376 Z" fill="#D71920" />
</svg>
